<svg xmlns="http://www.w3.org/2000/svg" fill="none" viewBox="0 0 50 51">
  <path fill="#fff" d="M25 .667c-13.785 0-25 11.215-25 25s11.215 25 25 25 25-11.215 25-25-11.215-25-25-25Zm0 47.143c-12.21 0-22.143-9.934-22.143-22.143C2.857 13.457 12.79 3.524 25 3.524s22.143 9.934 22.143 22.143c0 12.21-9.933 22.143-22.143 22.143Z"/>
  <path fill="#fff" d="M27.051 7.81h-4.102c-.785 0-1.545.328-2.082.901a2.866 2.866 0 0 0-.77 2.134l1.25 20a2.861 2.861 0 0 0 2.852 2.679h1.602a2.861 2.861 0 0 0 2.852-2.679l1.25-20a2.866 2.866 0 0 0-.77-2.134 2.868 2.868 0 0 0-2.082-.901Zm-1.248 22.857H24.2l-1.25-20h4.101l-1.248 20ZM25 34.953a4.29 4.29 0 0 0-4.286 4.286A4.29 4.29 0 0 0 25 43.525a4.29 4.29 0 0 0 4.286-4.286A4.29 4.29 0 0 0 25 34.953Zm0 5.714a1.43 1.43 0 0 1-1.428-1.428c0-.788.64-1.429 1.428-1.429a1.43 1.43 0 0 1 0 2.857Z"/>
</svg>