<svg xmlns="http://www.w3.org/2000/svg" fill="none" viewBox="0 0 50 50">
  <path fill="#BC5D2E" d="M49.923 8.797a.998.998 0 0 0-.216-1.09L42.282.281a1.03 1.03 0 0 0-1.414 0l-7.425 7.426a1 1 0 0 0 .707 1.707h1.211l-.588 10.52h-3.6a1 1 0 0 0-1 1v1.4h-1.449v-1.4a1 1 0 0 0-1-1h-5.449a1 1 0 0 0-1 1v1.4h-1.448v-1.4a1 1 0 0 0-1-1h-3.6l-.589-10.52h1.213a.999.999 0 0 0 .707-1.707L9.132.281a1.03 1.03 0 0 0-1.414 0L.293 7.707A1 1 0 0 0 1 9.414h1.212L.002 48.932A.999.999 0 0 0 1 49.987h48a1.001 1.001 0 0 0 .998-1.055l-2.21-39.518H49a.999.999 0 0 0 .923-.617ZM8.425 2.403l5.011 5.011H3.414l5.01-5.011Zm1.718 45.585H6.706v-4.17c0-.948.772-1.72 1.719-1.72.947 0 1.719.772 1.719 1.72v4.17Zm2 0v-4.17a3.722 3.722 0 0 0-3.718-3.72 3.723 3.723 0 0 0-3.72 3.72v4.17H2.058L4.214 9.414h8.422l2.157 38.574h-2.65Zm16.029 0h-6.344v-6.655a3.175 3.175 0 0 1 3.171-3.172 3.175 3.175 0 0 1 3.172 3.172v6.655Zm5.033 0h-3.033v-6.655A5.178 5.178 0 0 0 25 36.161a5.178 5.178 0 0 0-5.172 5.172v6.655h-3.032l-1.457-26.053h2.488v1.4a1 1 0 0 0 1 .999h3.448a1 1 0 0 0 1-1v-1.399h3.449v1.4a1 1 0 0 0 1 .999h3.447a1 1 0 0 0 1-1v-1.399h2.49l-1.456 26.053Zm8.37-45.585 5.01 5.011h-10.02l5.01-5.011Zm1.719 45.585h-3.438v-4.17c0-.948.772-1.72 1.72-1.72.947 0 1.718.772 1.718 1.72v4.17Zm4.648 0h-2.648v-4.17a3.722 3.722 0 0 0-3.72-3.72 3.722 3.722 0 0 0-3.718 3.72v4.17h-2.648l2.156-38.574h8.422l2.156 38.574Z"/>
</svg>