<svg xmlns="http://www.w3.org/2000/svg" fill="none" viewBox="0 0 50 50">
  <path fill="#BC5D2E" d="M25.053 34.391h-.017c-1.54-.03-2.714-.49-3.493-1.367-1.292-.1-2.685-.397-3.045-1.501-.403-1.234.842-2.447 1.97-3.364a.84.84 0 1 1 1.062 1.306c-1.247 1.015-1.403 1.484-1.421 1.567.052.005.421.258 1.905.335a.84.84 0 0 1 .645.358c.448.638 1.235.959 2.41.982a.841.841 0 0 1-.016 1.684ZM7.33 34.582c-1.01 0-1.86-.32-2.538-.956C2.925 31.878 2.596 27.78 3.789 21.1c.518-2.282.694-5.009.53-8.142a.842.842 0 0 1 1.407-.668c1.721 1.564 2.838 3.9 3.32 6.942a.843.843 0 0 1-1.664.263c-.253-1.6-.695-2.966-1.32-4.083-.015 2.25-.223 4.267-.623 6.022-1.324 7.422-.457 10.063.504 10.964.544.51 1.33.629 2.412.362a.842.842 0 0 1 .404 1.635 5.99 5.99 0 0 1-1.43.188ZM22.486 26.485a.841.841 0 0 1-.835-.956c.182-1.336.523-2.542 1.014-3.584a.842.842 0 1 1 1.524.717c-.42.887-.711 1.929-.87 3.095a.84.84 0 0 1-.833.728ZM22.627 20.235a.838.838 0 0 1-.51-.173c-2.773-2.113-5.768-2.656-8.898-1.612a.842.842 0 0 1-.533-1.598c3.692-1.23 7.207-.6 10.452 1.87a.842.842 0 0 1-.511 1.513Z"/>
  <path fill="#BC5D2E" d="M25.053 34.391a.841.841 0 0 1-.016-1.683c1.193-.023 1.99-.344 2.438-.982a.84.84 0 0 1 .644-.358c1.488-.079 1.86-.351 1.918-.402-.037-.014-.182-.482-1.434-1.5a.84.84 0 1 1 1.062-1.306c1.125.914 2.364 2.122 1.961 3.36-.361 1.11-1.818 1.407-3.036 1.505-.78.877-1.963 1.337-3.522 1.366h-.015ZM18.007 39.592c-1.391 0-2.972-.606-3.998-2.903a.842.842 0 1 1 1.538-.686c.683 1.528 1.626 2.1 3.056 1.853 1.677-.329 3.834-.497 6.394-.497a.841.841 0 1 1 0 1.683c-2.45 0-4.499.158-6.089.47-.285.05-.588.08-.9.08Z"/>
  <path fill="#BC5D2E" d="M19.517 39.386a.838.838 0 0 1-.699-.372 15.315 15.315 0 0 1-1.593-3.06c-.168.626-.247 1.364-.235 2.206a.842.842 0 0 1-.83.854c-.465.036-.846-.365-.853-.83-.031-2.172.474-3.845 1.504-4.974a.843.843 0 0 1 1.441.374 13.67 13.67 0 0 0 1.963 4.49.842.842 0 0 1-.698 1.312ZM31.984 39.594c-.284 0-.578-.026-.88-.078-1.61-.316-3.658-.474-6.108-.474a.841.841 0 1 1 0-1.683c2.56 0 4.717.168 6.413.501 1.418.245 2.384-.343 3.032-1.847a.841.841 0 1 1 1.546.667c-.82 1.903-2.223 2.914-4.003 2.914Z"/>
  <path fill="#BC5D2E" d="M30.475 39.386a.842.842 0 0 1-.697-1.312c.96-1.428 1.62-2.934 1.96-4.478a.84.84 0 0 1 1.444-.386c1.03 1.128 1.535 2.802 1.504 4.974a.842.842 0 0 1-.842.83h-.012a.842.842 0 0 1-.83-.854c.012-.834-.064-1.564-.23-2.187a15.397 15.397 0 0 1-1.597 3.04.84.84 0 0 1-.7.373ZM21.863 50c-3.535 0-6.549-.897-8.837-2.65-2.684-2.057-4.306-5.177-4.82-9.272C6.49 24.34 7.067 13.717 9.794 8.93 12.877 3.553 18.114.467 24.94 0a.854.854 0 0 1 .896.783.842.842 0 0 1-.782.897c-4.35.297-10.274 1.94-13.798 8.084-2.51 4.41-3.027 14.917-1.378 28.103.455 3.63 1.859 6.371 4.173 8.145 2.595 1.988 6.345 2.707 10.83 2.085a.835.835 0 0 1 .949.717.842.842 0 0 1-.718.95c-1.125.157-2.21.234-3.25.234h.002Z"/>
  <path fill="#BC5D2E" d="M28.13 50c-1.04 0-2.125-.078-3.25-.234a.842.842 0 0 1-.718-.95.836.836 0 0 1 .95-.718c4.485.623 8.235-.094 10.83-2.084 2.313-1.774 3.717-4.515 4.172-8.147 1.65-13.185 1.133-23.691-1.379-28.104-3.523-6.141-9.447-7.785-13.796-8.081a.842.842 0 0 1-.783-.898.848.848 0 0 1 .897-.783c6.825.466 12.061 3.553 15.144 8.927 2.728 4.79 3.306 15.413 1.59 29.149-.515 4.096-2.136 7.216-4.82 9.273C34.678 49.103 31.663 50 28.13 50Z"/>
  <path fill="#BC5D2E" d="M42.663 34.582c-.446 0-.923-.063-1.43-.188a.841.841 0 1 1 .404-1.634c1.082.266 1.868.147 2.413-.362.961-.898 1.834-3.538.524-11.005-.401-1.664-.612-3.637-.631-5.966-.619 1.116-1.065 2.479-1.335 4.076a.842.842 0 1 1-1.66-.28c.51-3.034 1.625-5.365 3.312-6.928a.84.84 0 0 1 1.413.655c-.142 3.268.043 5.993.55 8.1 1.182 6.736.844 10.833-1.023 12.579-.68.634-1.53.953-2.538.953ZM27.535 26.485a.842.842 0 0 1-.83-.71c-.194-1.22-.488-2.237-.901-3.112a.842.842 0 0 1 1.524-.718c.48 1.021.82 2.187 1.04 3.567a.843.843 0 0 1-.833.973ZM27.395 20.235a.841.841 0 0 1-.512-1.512c3.234-2.464 6.75-3.094 10.45-1.87a.842.842 0 0 1-.528 1.598c-3.182-1.052-6.096-.525-8.901 1.611a.84.84 0 0 1-.51.173ZM17.358 23.002c-.152 0-.305-.013-.455-.039-1.656-.278-2.914-2.035-3.848-5.37a.843.843 0 0 1 1.622-.454c.957 3.417 1.98 4.076 2.505 4.164.534.09 1.706-.196 3.727-3.105a.842.842 0 0 1 1.383.96c-1.793 2.58-3.412 3.844-4.934 3.844Z"/>
  <path fill="#BC5D2E" d="M32.638 23.002c-1.52 0-3.131-1.264-4.91-3.845a.843.843 0 0 1 1.386-.956c2.002 2.904 3.174 3.188 3.697 3.102.525-.087 1.547-.745 2.505-4.164a.843.843 0 0 1 1.622.454c-.935 3.338-2.194 5.095-3.85 5.372-.149.025-.3.037-.45.037ZM24.997 13.1c-2.229 0-3.446-.77-4.25-1.279-1.237-.777-2.171-.72-2.623-.625a.842.842 0 0 1-.354-1.646c.703-.152 2.131-.25 3.792.795.8.505 1.695 1.07 3.435 1.07a.842.842 0 0 1 0 1.684Z"/>
  <path fill="#BC5D2E" d="M24.997 13.1a.842.842 0 0 1 0-1.685c1.712 0 2.619-.554 3.347-1l.127-.076c1.643-1.032 3.055-.937 3.753-.789a.842.842 0 0 1-.354 1.646c-.446-.095-1.365-.147-2.515.575l-.133.082c-.812.496-2.039 1.246-4.226 1.246ZM24.997 8.22c-1.516 0-2.304-.512-2.826-.85-.623-.39-1.075-.366-1.291-.315a.843.843 0 0 1-.385-1.639c.47-.11 1.432-.188 2.581.536.449.289.903.583 1.92.583a.842.842 0 0 1 0 1.684Z"/>
  <path fill="#BC5D2E" d="M24.997 8.22a.842.842 0 0 1 0-1.685c1.046 0 1.541-.32 1.94-.579 1.12-.73 2.088-.651 2.562-.54.452.106.733.56.627 1.012a.84.84 0 0 1-1.013.626c-.174-.04-.642-.09-1.258.314-.638.413-1.435.851-2.858.851ZM27.992 46.12c-.17 0-.34-.05-.489-.156a4.312 4.312 0 0 0-5.014 0 .843.843 0 0 1-.98-1.37 6.003 6.003 0 0 1 6.974 0 .843.843 0 0 1-.491 1.526Z"/>
</svg>