<svg xmlns="http://www.w3.org/2000/svg" fill="none" viewBox="0 0 50 50">
  <path fill="#BC5D2E" d="M30.209 42.676c-.706 0-1.367-.142-1.912-.51-.567-.381-1.235-1.164-1.209-2.722.04-2.156 1.806-3.11 3.098-3.808l.41-.225c1.691-.945 2.983-1.807 4.064-2.711 2.153-1.806 3.176-3.395 3.06-3.801-.003 0-.065-.071-.294-.15-.33-.113-.742-.144-1.177-.177-.36-.027-.717-.054-1.058-.121-5.005-.941-8.115-4.643-8.115-9.665 0-6.32 5.143-11.462 11.462-11.462C44.966 7.324 50 12.358 50 18.786 50 26.3 46.176 36.68 35.4 41.2l-.261.112c-1.233.52-3.216 1.364-4.93 1.364Zm8.33-33.269c-5.172 0-9.38 4.208-9.38 9.38 0 4.073 2.34 6.85 6.418 7.616.266.048.547.069.828.09.523.041 1.115.085 1.696.285 1.247.427 1.58 1.273 1.666 1.741.367 1.969-2.206 4.466-3.772 5.776-1.183.991-2.576 1.922-4.382 2.932l-.438.24c-1.239.666-1.99 1.137-2.005 2.012-.009.5.087.825.29.958.616.42 2.255.062 4.863-1.046l.27-.114c9.836-4.124 13.324-13.615 13.324-20.491 0-5.26-4.12-9.379-9.379-9.379ZM3.134 42.676c-.706 0-1.368-.142-1.912-.51C.656 41.784-.015 41 .012 39.443c.038-2.157 1.808-3.111 3.101-3.81l.409-.222c1.69-.946 2.982-1.808 4.061-2.712 2.156-1.803 3.178-3.393 3.062-3.8-.002 0-.064-.072-.293-.15-.33-.113-.742-.144-1.18-.178-.358-.027-.714-.054-1.057-.12C3.107 27.509 0 23.808 0 18.786c0-6.32 5.142-11.462 11.461-11.462 6.428 0 11.463 5.034 11.463 11.462 0 7.513-3.824 17.891-14.601 22.413l-.26.113c-1.233.52-3.214 1.364-4.929 1.364Zm8.327-33.269c-5.171 0-9.379 4.208-9.379 9.38 0 4.073 2.34 6.85 6.418 7.616.269.048.55.069.83.09.523.041 1.117.085 1.698.285 1.248.427 1.579 1.275 1.666 1.741.367 1.97-2.207 4.468-3.774 5.778-1.18.987-2.574 1.918-4.382 2.93l-.435.238c-1.237.669-1.991 1.14-2.008 2.014-.008.5.088.825.29.958.92.63 3.888-.633 4.859-1.045l.27-.115c9.838-4.126 13.327-13.616 13.327-20.49 0-5.26-4.12-9.38-9.379-9.38Z"/>
</svg>