<svg xmlns="http://www.w3.org/2000/svg" fill="none" viewBox="0 0 51 51">
  <path fill="#BC5D2E" d="M6.108 41.968a8.167 8.167 0 0 0 1.36-.125c.434-.073.863-.17 1.285-.293 5.353-1.469 12.91-6.613 19.72-13.424 6.81-6.81 11.954-14.366 13.42-19.704l.002-.008.002-.007v-.003c.121-.421.219-.85.292-1.282V7.12c.16-.932.306-2.619-.515-3.44-.95-.951-3.744-1.092-8.73 1.363-4.916 2.415-10.498 6.619-15.716 11.838a63.635 63.635 0 0 0-11.66 15.408c-1.068 2.113-3.355 7.223-1.54 9.038.586.472 1.331.7 2.081.64Zm19.96-13.906c-.131.126-.263.248-.394.372-.267.252-.534.504-.802.751-.155.143-.31.282-.466.423a82.923 82.923 0 0 1-1.228 1.089 83.545 83.545 0 0 1-1.213 1.03 69.51 69.51 0 0 1-1.974 1.583l-.428.33a63.31 63.31 0 0 1-.863.64l-.322.238A54.633 54.633 0 0 1 16 36.146l-.153.096c-.334.214-.665.421-.993.619l-.287.17c-.282.168-.563.332-.841.488-.107.06-.213.117-.32.176a39.91 39.91 0 0 1-1.109.584c-.254.128-.505.25-.752.366-.106.05-.212.1-.317.147-.248.112-.491.217-.733.317-.099.041-.198.084-.296.123-.058.023-.113.042-.17.064 2.287-5.154 6.853-11.398 12.534-17.08 5.682-5.68 11.926-10.247 17.08-12.535-.019.051-.035.1-.055.15-.052.13-.109.263-.164.395a25.754 25.754 0 0 1-.993 2.109c-.111.214-.228.431-.347.65-.08.147-.16.295-.245.443-.13.229-.265.461-.402.694-.084.14-.164.28-.25.422-.162.266-.33.535-.502.805l-.21.332c-.248.384-.505.77-.77 1.16l-.123.174c-.228.332-.462.664-.704 1-.099.137-.203.275-.304.413-.19.258-.38.516-.576.775-.12.158-.243.316-.366.474-.186.242-.374.483-.566.726l-.4.496a67.6 67.6 0 0 1-1.618 1.929c-.143.165-.286.33-.431.494-.218.246-.44.492-.662.738l-.424.466a84.03 84.03 0 0 1-.751.802c-.124.131-.246.263-.372.394-.38.396-.766.79-1.158 1.183-.392.391-.787.777-1.183 1.157ZM7.11 33.07a61.88 61.88 0 0 1 11.34-14.965c5.088-5.089 10.506-9.176 15.258-11.51.378-.186.74-.355 1.083-.506.165-.073.312-.13.469-.196.17-.07.348-.149.509-.211.25-.098.484-.18.712-.26.052-.017.11-.04.16-.057h-.001a9.688 9.688 0 0 1 2.972-.594c.286-.02.573.026.839.137a.25.25 0 0 1 .013.025c.004.009.01.018.014.03.006.014.012.034.018.052l.017.055.018.078.016.078.014.11c.004.032.009.062.012.098.004.045.006.098.008.149l.005.112c.001.06-.001.13-.003.199-.001.04 0 .076-.003.119-.004.083-.013.178-.022.272-.004.036-.005.066-.01.104a7.625 7.625 0 0 1-.062.439c-.044.252-.094.483-.148.706-5.603 2.133-12.662 7.126-18.997 13.462C15.006 27.33 10.012 34.389 7.88 39.992c-.221.054-.452.104-.704.149a3.362 3.362 0 0 1-1.926-.035c-.353-.353-.374-2.614 1.861-7.036Z"/>
  <path fill="#BC5D2E" d="M43.508 1.847c-4.18-4.182-16.53 1.618-28.113 13.2C3.81 26.632-1.987 38.98 2.194 43.162l5.947 5.946a5.287 5.287 0 0 0 3.889 1.384 18.645 18.645 0 0 0 7.813-2.253c5.165-2.535 10.992-6.915 16.41-12.332 5.417-5.418 9.797-11.246 12.333-16.41 2.669-5.437 2.977-9.594.868-11.703l-5.946-5.946ZM16.618 16.27c9.304-9.305 18.23-14.1 22.965-14.1a3.703 3.703 0 0 1 2.702.899c1.042 1.042.986 2.859.756 4.198a15.432 15.432 0 0 1-.566 2.2c-1.794 5.415-6.81 12.69-13.39 19.27-6.581 6.58-13.856 11.597-19.272 13.39-.718.243-1.453.432-2.199.567-1.34.231-3.157.286-4.2-.756-3.01-3.01 1.576-14.043 13.202-25.668h.001ZM35.03 34.684C23.404 46.309 12.373 50.897 9.362 47.886L6.04 44.565l.024-.002.015.002c.613-.004 1.225-.06 1.828-.167 5.94-1.031 14.522-6.563 22.398-14.438 7.875-7.875 13.406-16.457 14.437-22.399.056-.324.097-.637.124-.94.01-.11.01-.212.017-.32.011-.19.024-.383.024-.565l.002-.04 3.321 3.32c3.01 3.01-1.576 14.042-13.201 25.667v.001Z"/>
  <path fill="#BC5D2E" d="M26.293 35.582a2.171 2.171 0 0 0-.653 2.613c-.798.6-1.323.977-2.125 1.52a1.351 1.351 0 0 1 .552-1.366.433.433 0 1 0-.502-.704 2.154 2.154 0 0 0-.596 2.958h.001c.173.261.232.581.164.887a1.435 1.435 0 0 1-1.702 1.075 1.15 1.15 0 0 1-.73-.526 1.315 1.315 0 0 1 .481-1.752.432.432 0 0 0-.462-.73 2.23 2.23 0 0 0-1.038 1.614 2.241 2.241 0 0 0-1.916.142 2.16 2.16 0 0 0-.93 2.88c.143.278.166.6.064.895a1.46 1.46 0 0 1-1.837.892 1.144 1.144 0 0 1-.665-.6v-.003a2.236 2.236 0 0 0-4.111 1.725.434.434 0 0 0 .559.247 52.74 52.74 0 0 0 2.987-1.24c.239.314.564.551.936.683a2.322 2.322 0 0 0 2.952-1.433c.029-.089.052-.18.07-.27.085.038.173.07.263.097.59.17 1.222.096 1.757-.205a.433.433 0 0 0-.421-.755c-.33.187-.723.235-1.088.132a1.15 1.15 0 0 1-.7-.564 1.355 1.355 0 0 1 2.356-1.313c.28.468.74.802 1.272.924a2.3 2.3 0 0 0 2.748-1.737 2.028 2.028 0 0 0-.09-1.162 50.022 50.022 0 0 0 2.167-1.542c.04.157.047.32.022.481-.062.37-.27.7-.576.915a.432.432 0 0 0 .502.703c.496-.35.831-.887.928-1.487a2.21 2.21 0 0 0 .025-.281c.09.023.183.041.277.053a2.276 2.276 0 0 0 1.683-.487.433.433 0 0 0-.54-.675c-.29.236-.664.346-1.036.304a1.149 1.149 0 0 1-.786-.444 1.34 1.34 0 0 1 2.083-1.667.432.432 0 1 0 .66-.56 2.151 2.151 0 0 0-3.006-.237ZM11.018 46.355a1.383 1.383 0 0 1 .865-1.22c.18-.076.374-.115.57-.116.336-.004.662.123.906.356a47.78 47.78 0 0 1-2.341.98ZM47.448 9.942a2.236 2.236 0 0 0-1.724 4.111h.002v.001c.282.13.499.37.6.664.078.22.099.457.06.687l-2.553-1.242a.433.433 0 1 0-.378.777l2.553 1.242c-.156.17-.354.3-.574.373a1.147 1.147 0 0 1-.894-.063.432.432 0 1 0-.4.767c.275.146.479.398.564.698.104.366.057.758-.131 1.088a64.81 64.81 0 0 1-1.764 3.013.438.438 0 0 0-.087.101c-.2.32-.518.547-.886.63a1.157 1.157 0 0 1-.886-.165 1.347 1.347 0 0 1 1.435-2.268.432.432 0 1 0 .443-.742 1.299 1.299 0 0 1-.413-1.772.433.433 0 1 0-.755-.421 2.238 2.238 0 0 0-.143 1.916 2.278 2.278 0 0 0-1.861 2.938A2.268 2.268 0 0 0 37.64 25.1a2.263 2.263 0 0 0-2.164 2.703 2.183 2.183 0 0 0-1.754.751 2.148 2.148 0 0 0 .072 3.012c.227.217.355.518.355.832.002.223-.051.443-.155.64l-2.007-2.006a.433.433 0 0 0-.611.612l2.006 2.006c-.195.11-.417.163-.64.156-.314-.001-.614-.129-.832-.356a2.15 2.15 0 0 0-3.012-.072.432.432 0 1 0 .576.643 1.305 1.305 0 0 1 1.808.023c.215.23.327.536.31.85-.02.372-.19.721-.47.969a.431.431 0 1 0 .577.643 2.26 2.26 0 0 0 .756-1.576 2.1 2.1 0 0 0-.007-.283c.094.014.188.021.282.023.61.023 1.2-.22 1.615-.668.431-.427.672-1.01.669-1.616a2.079 2.079 0 0 0-.023-.281 2.209 2.209 0 0 0 1.86-.75.432.432 0 0 0-.645-.577c-.247.28-.596.45-.968.47a1.164 1.164 0 0 1-.85-.31 1.338 1.338 0 0 1 1.777-1.985l.002.002 1.271 1.076a.433.433 0 0 0 .559-.66l-1.273-1.078a1.34 1.34 0 0 1 1.667-2.083c.438.329.99.465 1.53.378a2.265 2.265 0 0 0 1.488-.929 55.256 55.256 0 0 0 3.917-6.191 2.286 2.286 0 0 0 .206-1.757 2.278 2.278 0 0 0-.098-.264c.091-.017.182-.04.27-.07a2.288 2.288 0 0 0 1.325-1.175l.002-.004c.272-.552.31-1.191.107-1.772a2.002 2.002 0 0 0-1.057-1.159h-.001a1.31 1.31 0 0 1-.6-1.729 1.328 1.328 0 0 1 1.656-.789.43.43 0 0 0 .56-.246.433.433 0 0 0-.248-.56Zm-6.742 15.214a1.4 1.4 0 0 1-.915.577c-.309.05-.626-.026-.877-.214a1.309 1.309 0 0 1-.22-1.797 1.37 1.37 0 0 1 1.106-.58c.238-.002.47.068.668.2l.002.001a1.98 1.98 0 0 0 1.276.33c-.31.453-.65.937-1.04 1.483Z"/>
</svg>