<svg xmlns="http://www.w3.org/2000/svg" fill="none" viewBox="0 0 80 80">
  <path fill="#FA320A" d="M48.504 78.703c20.008-4.832 35.361-22.625 30.24-43.839l-.007.019C74.131 15.791 57.65 6.25 38.493 8.703l-2.341.28c-.215-1.88.774-4.663 3.474-5.083.326-.051.466-.452.233-.685-4.076-3.82-11.782-1.871-14.888 5.073C22.608 4.796 19.36 0 19.36 0l-5.077 4.196s2.911 2.58 6.613 5.816c-5.452-2.103-13.149.996-16.5 7.349-.173.34.157.666.484.573 3.134-1.053 6.243-.82 11.386-1.24-.825.284-2.056 1.063-3.04 1.865-10.288 7.934-15.72 20.07-12.106 35.04C6.24 74.815 28.495 83.532 48.504 78.703Z"/>
</svg>